<svg width="75" height="64" viewBox="0 0 75 64" fill="none" xmlns="http://www.w3.org/2000/svg">
<path id="&#208;&#180;&#209;&#137;&#208;&#191;&#209;&#137;-Photoroom 1 (Traced)" fill-rule="evenodd" clip-rule="evenodd" d="M32.3684 0.105803C28.5736 0.600081 25.5892 1.53367 22.1783 3.29381C16.4738 6.23716 12.8297 10.2852 11.6901 14.9447C11.2862 16.5955 11.3735 19.9422 11.8535 21.2099C13.4822 25.513 17.2972 27.8025 21.3962 26.9369C23.0784 26.5817 23.3333 26.454 25.2152 25.0239C26.8918 23.7497 27.196 23.2154 25.7658 24.0568C23.7722 25.2297 20.6995 24.8309 18.8573 23.1602C18.4063 22.7513 17.7258 21.7584 17.291 20.8754C16.5738 19.4186 16.517 19.1651 16.4466 17.1005C16.3639 14.6758 16.5662 13.3899 17.361 11.2868C19.4417 5.78153 25.0787 1.78019 32.1259 0.805893C34.4596 0.483331 38.6637 0.533544 40.8082 0.909418C43.9083 1.45308 47.1096 2.63691 48.6846 3.82239L49.3563 4.32804L48.3136 5.15521C43.596 8.89866 39.8308 14.6436 37.6346 21.4501C37.1231 23.0356 35.6961 28.5435 35.2363 30.7079C35.1811 30.9674 34.8839 31.2897 34.5755 31.4241C33.4773 31.9028 32.6772 32.6416 32.6772 33.1768C32.6772 33.6706 32.7161 33.6865 33.6035 33.5528C34.4948 33.4187 34.5298 33.4332 34.5298 33.9388C34.5298 34.6098 33.2754 40.0053 32.3429 43.3452C31.0386 48.0171 29.3033 52.1009 27.4715 54.8099C25.697 57.4338 22.1159 60.653 20.0175 61.5101C19.2328 61.8308 18.34 62.5094 18.4965 62.6667C18.5623 62.7326 19.163 62.5417 19.8314 62.242C20.8361 61.792 21.4391 61.6812 23.3111 61.6037C25.7417 61.5031 27.5211 61.7606 32.7225 62.9651C40.1305 64.6806 45.8157 64.2797 51.5078 61.6403C56.408 59.3683 59.5587 55.8505 61.3128 50.693C61.7432 49.4278 61.8045 48.8711 61.8029 46.2503C61.8015 43.5219 61.7521 43.1187 61.2514 41.7384C60.2397 38.949 58.8691 37.1107 56.2549 35.0361C55.0461 34.0769 52.2009 32.6159 50.5279 32.0954C49.2251 31.69 48.9178 31.4373 49.4923 31.2437C51.8269 30.4574 54.8897 28.4729 56.6703 26.5931C59.7183 23.3751 60.8554 20.4076 60.5876 16.3703C60.2716 11.6079 58.0711 8.11509 53.5556 5.20831C52.3684 4.44417 51.4695 3.74966 51.5578 3.66473C51.924 3.3122 54.1235 2.21165 55.6093 1.6372C62.8632 -1.16667 70.5949 1.05427 73.5212 6.78248C74.2117 8.13389 74.5377 9.73265 74.5536 11.8451C74.5692 13.9524 74.2829 15.173 73.3121 17.1353C71.4356 20.9291 67.3874 23.1974 64.8301 21.8879L63.9662 21.4453V21.9164C63.9662 22.4469 64.6753 22.9957 65.0553 22.7593C65.1922 22.6742 65.9032 22.5808 66.6354 22.5521C70.4957 22.4002 74.0974 18.4741 74.8807 13.5648C75.1757 11.7147 74.9111 9.27082 74.2269 7.52824C73.1544 4.7969 70.248 2.03353 67.2902 0.932976C62.9149 -0.695125 57.3273 -0.114472 52.4607 2.47408L50.5271 3.50231L49.3729 2.8886C46.8276 1.53512 44.0137 0.645748 40.8047 0.180193C39.4451 -0.0171461 33.7004 -0.0677725 32.3684 0.105803ZM41.5287 3.66948C39.8915 4.1712 36.445 6.69383 34.4724 8.8346C33.0819 10.3433 31.572 12.5334 30.616 14.4281C29.7288 16.1866 28.2817 20.509 27.8443 22.7072C27.6534 23.6658 27.2792 25.3334 27.0124 26.4131C26.7458 27.4928 26.2405 29.8133 25.8893 31.5697C25.5381 33.3262 25.2283 34.7859 25.2007 34.8135C25.1732 34.8412 24.6172 34.4071 23.9652 33.8485C19.1093 29.6889 12.3249 30.2411 7.4391 35.1933C4.90407 37.7629 3.78837 40.9914 4.54178 43.5771C5.21778 45.8968 6.64946 47.1744 8.38003 47.0025C9.10956 46.9298 9.43871 46.7582 9.97536 46.1704C10.5324 45.5602 10.6514 45.2643 10.6514 44.4898C10.6514 43.278 10.2802 42.736 8.78823 41.7688C8.08937 41.3156 7.47183 40.7368 7.33494 40.4062C6.96832 39.522 7.21719 37.423 7.8335 36.2021C9.20651 33.4822 13.1858 31.3685 16.9215 31.3749C19.5442 31.3792 21.9949 32.3758 24.0334 34.267L25.1172 35.2725L24.9729 36.365C24.7458 38.0836 23.2907 43.6029 22.2577 46.6636C19.6241 54.4681 15.4437 59.7473 10.2512 61.8265C8.84216 62.3906 8.47307 62.4497 6.32854 62.4547C4.2118 62.4594 3.84066 62.4038 2.82191 61.9286C1.3678 61.2502 0.564781 60.3191 0.564781 59.3117C0.564781 58.617 0.539462 58.5856 0.229248 58.8968C-0.580973 59.7101 0.863262 61.58 2.8849 62.335C4.48249 62.9318 5.89873 63.0661 7.87241 62.8078C10.0606 62.5216 11.723 61.8327 14.1209 60.2193C16.757 58.4455 18.5708 56.7558 20.6727 54.1148C26.2693 47.0837 29.6514 38.3268 32.5687 23.3135C33.4812 18.6175 34.4528 14.6407 35.345 11.9484C36.7312 7.76587 38.6365 5.29634 41.3922 4.11065C42.6477 3.5703 42.731 3.30105 41.5287 3.66948ZM52.2729 6.99821C55.6528 11.2498 56.3697 18.3866 53.9654 23.8506C52.8938 26.286 50.557 28.9948 48.4695 30.2212L47.4853 30.7994L46.2051 30.4822C44.2813 30.0053 42.7343 29.8656 42.0947 30.1115C41.1567 30.4719 41.4426 30.7525 42.7481 30.7525C44.0779 30.7525 46.0573 31.1395 46.0573 31.3997C46.0573 31.7082 43.3302 32.407 41.6079 32.5401C40.0048 32.6637 39.8819 32.6453 39.8819 32.282C39.8819 31.5985 43.1477 17.0768 43.6648 15.4613C44.4303 13.0692 45.3953 10.751 46.1979 9.376C47.0608 7.8975 48.755 5.71809 49.4964 5.13268L50.0226 4.71714L50.7746 5.3883C51.1881 5.75735 51.8623 6.48182 52.2729 6.99821ZM49.3748 33.1652C51.1317 34.0432 53.268 36.0538 54.1663 37.6749C54.4813 38.2431 55.0303 39.5449 55.3862 40.5678C56.0167 42.3796 56.0334 42.5209 56.0334 46.0437C56.0332 49.4644 56.0017 49.7547 55.4494 51.4163C54.688 53.7073 53.6752 55.7232 52.5451 57.1976C49.5456 61.1103 45.4015 63.4013 41.3228 63.4013C38.7168 63.4013 36.598 62.7843 31.545 60.554C26.7154 58.4226 27.1892 58.5112 25.1942 59.3654C24.0793 59.8428 24.308 59.5148 26.09 58.0799C29.5324 55.3083 32.7918 51.3192 34.789 47.4331C36.2826 44.527 37.8123 40.2616 38.8724 36.0468C39.218 34.6722 39.6097 33.4778 39.7429 33.3929C39.8759 33.308 40.5869 33.2303 41.3228 33.2204C42.0587 33.2104 43.4482 33.0323 44.4105 32.8246C47.0555 32.2537 47.6294 32.293 49.3748 33.1652Z" fill="#FFD700"/>
</svg>
